<?xml version="1.0" encoding="UTF-8" standalone="no"?>
<!-- Created with Inkscape (http://www.inkscape.org/) -->

<svg
   width="512"
   height="512"
   viewBox="0 0 512 512"
   version="1.1"
   id="svg5"
   inkscape:version="1.1 (c68e22c387, 2021-05-23)"
   sodipodi:docname="component.svg"
   inkscape:export-filename="D:\.Project\season-studio.github.io\logo\component.png"
   inkscape:export-xdpi="96"
   inkscape:export-ydpi="96"
   xmlns:inkscape="http://www.inkscape.org/namespaces/inkscape"
   xmlns:sodipodi="http://sodipodi.sourceforge.net/DTD/sodipodi-0.dtd"
   xmlns="http://www.w3.org/2000/svg"
   xmlns:svg="http://www.w3.org/2000/svg">
  <sodipodi:namedview
     id="namedview7"
     pagecolor="#ffffff"
     bordercolor="#666666"
     borderopacity="1.0"
     inkscape:pageshadow="2"
     inkscape:pageopacity="0.0"
     inkscape:pagecheckerboard="0"
     inkscape:document-units="px"
     showgrid="false"
     units="px"
     width="512px"
     inkscape:zoom="1.912696"
     inkscape:cx="261.1497"
     inkscape:cy="255.39866"
     inkscape:window-width="1920"
     inkscape:window-height="991"
     inkscape:window-x="-9"
     inkscape:window-y="-9"
     inkscape:window-maximized="1"
     inkscape:current-layer="layer1" />
  <defs
     id="defs2" />
  <g
     inkscape:label="图层 1"
     inkscape:groupmode="layer"
     id="layer1">
    <path
       d="m 348.44999,255.19294 h 0.25283 v 89.75333 l -90.37089,33.29376 h -0.25282 v -89.75334 z"
       stroke="#2f528f"
       stroke-width="1.40003"
       stroke-miterlimit="8"
       fill="#4472c4"
       fill-rule="evenodd"
       id="path7"
       style="stroke:#000000;stroke-opacity:1;stroke-width:1.7;stroke-miterlimit:8;stroke-dasharray:none;stroke-linejoin:round;stroke-linecap:round;fill:#3cff59;fill-opacity:1" />
    <path
       d="m 167.78373,255.19294 90.45955,-33.24829 90.45954,33.24829 -90.45954,33.24829 z"
       stroke="#2f528f"
       stroke-width="1.40003"
       stroke-miterlimit="8"
       fill="#4472c4"
       fill-rule="evenodd"
       id="path9"
       style="stroke:#000000;stroke-opacity:1;stroke-width:1.7;stroke-miterlimit:8;stroke-dasharray:none;stroke-linejoin:round;stroke-linecap:round;fill:#3cff59;fill-opacity:1" />
    <path
       d="m 167.70788,255.19294 h -0.2525 v 89.75418 l 90.69951,33.29291 h 0.25256 v -89.75419 z"
       stroke="#2f528f"
       stroke-width="1.40003"
       stroke-miterlimit="8"
       fill="#4472c4"
       fill-rule="evenodd"
       id="path11"
       style="stroke:#000000;stroke-opacity:1;stroke-width:1.7;stroke-miterlimit:8;stroke-dasharray:none;stroke-linejoin:round;stroke-linecap:round;fill:#3cff59;fill-opacity:1" />
    <path
       d="m 455.82268,294.97721 h 0.24954 v 89.75334 L 366.0264,418.0243 h -0.24955 v -89.75333 z"
       stroke="#2f528f"
       stroke-width="1.40003"
       stroke-miterlimit="8"
       fill="#4472c4"
       fill-rule="evenodd"
       id="path13"
       style="stroke:#000000;stroke-opacity:1;stroke-width:1.7;stroke-miterlimit:8;stroke-dasharray:none;stroke-linejoin:round;stroke-linecap:round;fill:#ff9233;fill-opacity:1" />
    <path
       d="m 275.48149,295.1193 90.29536,-33.39037 90.29537,33.39037 -90.29537,33.39038 z"
       stroke="#2f528f"
       stroke-width="1.40003"
       stroke-miterlimit="8"
       fill="#4472c4"
       fill-rule="evenodd"
       id="path15"
       style="stroke:#000000;stroke-opacity:1;stroke-width:1.7;stroke-miterlimit:8;stroke-dasharray:none;stroke-linejoin:round;stroke-linecap:round;fill:#ff9233;fill-opacity:1" />
    <path
       d="m 275.40564,294.97721 h -0.2525 v 89.75418 l 90.6995,33.29291 h 0.25256 v -89.75418 z"
       stroke="#2f528f"
       stroke-width="1.40003"
       stroke-miterlimit="8"
       fill="#4472c4"
       fill-rule="evenodd"
       id="path17"
       style="stroke:#000000;stroke-opacity:1;stroke-width:1.7;stroke-miterlimit:8;stroke-dasharray:none;stroke-linejoin:round;stroke-linecap:round;fill:#ff9233;fill-opacity:1" />
    <path
       d="m 348.44999,333.34063 h 0.25283 v 89.75332 l -90.37089,33.29376 h -0.25282 v -89.75333 z"
       stroke="#2f528f"
       stroke-width="1.40003"
       stroke-miterlimit="8"
       fill="#4472c4"
       fill-rule="evenodd"
       id="path19"
       style="stroke:#000000;stroke-opacity:1;stroke-width:1.7;stroke-miterlimit:8;stroke-dasharray:none;stroke-linejoin:round;stroke-linecap:round;fill:#009bff;fill-opacity:1" />
    <path
       d="m 167.78373,333.34063 90.45955,-33.2483 90.45954,33.2483 -90.45954,33.24828 z"
       stroke="#2f528f"
       stroke-width="1.40003"
       stroke-miterlimit="8"
       fill="#4472c4"
       fill-rule="evenodd"
       id="path21"
       style="stroke:#000000;stroke-opacity:1;stroke-width:1.7;stroke-miterlimit:8;stroke-dasharray:none;stroke-linejoin:round;stroke-linecap:round;fill:#009bff;fill-opacity:1" />
    <path
       d="m 167.70788,333.34063 h -0.2525 v 89.75418 l 90.69951,33.2929 h 0.25256 v -89.75418 z"
       stroke="#2f528f"
       stroke-width="1.40003"
       stroke-miterlimit="8"
       fill="#4472c4"
       fill-rule="evenodd"
       id="path23"
       style="stroke:#000000;stroke-opacity:1;stroke-width:1.7;stroke-miterlimit:8;stroke-dasharray:none;stroke-linejoin:round;stroke-linecap:round;fill:#009bff;fill-opacity:1" />
    <path
       d="m 125.89569,170.71567 h 28.55327 q 7.0487,-45.95097 16.12842,-68.37506 9.0797,-22.424071 23.655,-35.290336 14.57532,-13.050093 27.47805,-13.050093 7.28764,0 10.9912,4.411295 3.70356,4.411288 3.70356,10.476823 0,5.514135 -2.50886,9.190199 -2.50885,3.676081 -6.57085,3.676081 -4.18145,0 -15.76998,-3.85988 -5.73455,-1.838033 -8.96023,-1.838033 -7.88502,0 -14.21692,15.071916 -6.33188,14.888108 -10.15492,40.436868 l -5.97348,39.15022 h 31.54 l -1.91152,13.05008 h -31.89841 l -18.87623,117.26692 q -8.72127,53.48694 -27.95591,81.05754 -19.11516,27.57057 -41.575476,27.57057 -7.526573,0 -11.349609,-4.5951 -3.942497,-4.41129 -3.942497,-11.02822 0,-5.69792 2.747798,-9.1902 2.628337,-3.30848 7.646065,-3.30848 2.508872,0 7.407115,0.91902 8.362869,1.65423 16.008944,1.65423 11.8275,0 17.20367,-8.63878 5.37613,-8.45497 10.75225,-41.72349 L 152.2985,183.76575 h -28.55326 z"
       style="font-style:italic;font-size:1315px;font-family:'Monotype Corsiva', 'Monotype Corsiva_MSFontService', sans-serif;stroke:#ffffff;stroke-width:1.80811;stroke-miterlimit:4;stroke-dasharray:none;stroke-opacity:1"
       id="path830" />
    <path
       d="m 256.36779,155.37186 q 6.97667,-2.32555 13.24556,-4.24666 6.26888,-1.92111 11.42554,-3.23555 5.15667,-1.41556 8.89778,-2.12334 3.84222,-0.70777 5.96555,-0.70777 3.13445,0 5.86444,0.90999 2.83111,0.91001 5.35889,3.53889 2.62889,2.62889 5.05555,7.28 2.52778,4.65111 5.05556,12.03222 3.03333,8.89777 6.06666,16.88555 3.03333,7.88666 5.86444,15.77332 6.47111,-12.8411 12.84111,-23.35665 6.4711,-10.61667 12.94221,-17.99778 6.57222,-7.48221 13.24555,-11.52666 6.77444,-4.14555 13.85222,-4.14555 4.55,0 7.98778,1.41556 3.43777,1.31444 5.76333,3.53888 2.42666,2.22445 3.53888,5.25778 1.21334,2.93222 1.21334,6.06666 0,4.24667 -2.12334,8.49333 -2.12333,4.14556 -6.47111,7.07778 h -0.80888 q -1.82,-2.22445 -3.84223,-3.53889 -1.9211,-1.41556 -3.94333,-2.12334 -2.02222,-0.80888 -4.04444,-1.01111 -1.92111,-0.30333 -3.74111,-0.30333 -5.96555,0 -11.52666,3.43778 -5.46,3.33666 -10.61666,9.40333 -5.15666,5.96555 -10.11111,14.15555 -4.85333,8.18999 -9.70666,17.89665 4.75222,13.04333 8.69555,22.95222 4.04444,9.90888 7.58333,17.18888 3.53889,7.17889 6.87555,12.03221 3.33667,4.85334 6.77445,7.78556 3.43777,2.93222 7.17888,4.14555 3.74111,1.21333 8.19,1.21333 3.03333,0 5.56111,-0.20222 2.62889,-0.20222 5.05555,-0.60667 2.52778,-0.50555 5.25777,-1.31444 2.73,-0.80889 6.06667,-2.02222 l 2.02222,5.76333 q -4.85333,3.33666 -10.41444,6.16778 -5.56111,2.73 -11.22333,4.65111 -5.66222,2.02222 -11.12221,3.03333 -5.35889,1.11222 -10.01,1.11222 -6.57222,0 -11.82999,-3.23556 -5.15667,-3.13444 -9.90889,-10.00999 -4.65111,-6.97666 -9.40333,-17.69444 -4.75222,-10.81888 -10.51555,-25.98554 -7.17889,12.73999 -14.25666,23.35666 -6.97666,10.61666 -14.05444,18.3011 -7.07777,7.58333 -14.25666,11.82999 -7.07777,4.24667 -14.35777,4.24667 -4.44889,0 -7.78555,-1.21334 -3.33667,-1.21333 -5.56111,-3.23555 -2.22445,-2.02222 -3.33667,-4.65111 -1.21333,-2.73 -1.21333,-5.66222 0,-3.43778 1.51666,-6.97666 1.51667,-3.53889 4.55001,-6.77444 5.45999,2.02222 9.70666,2.83111 4.34777,0.80889 7.88666,0.80889 6.47111,0 12.43666,-3.23556 5.96555,-3.23555 11.62777,-9.09999 5.66222,-5.96556 11.22333,-14.35778 5.56111,-8.39222 11.22333,-18.70554 -1.82,-4.85334 -3.74111,-10.01 -1.82,-5.15666 -3.94333,-10.81888 -2.12333,-5.76333 -4.44889,-12.13333 -2.32555,-6.47111 -4.95444,-13.7511 -2.32555,-6.16778 -4.65111,-10.01 -2.22444,-3.94333 -4.85333,-6.16778 -2.52778,-2.22444 -5.56111,-3.03333 -2.93222,-0.80889 -6.57222,-0.80889 -3.23555,0 -7.68444,0.80889 -4.34777,0.70778 -9.50444,1.82 z"
       style="font-size:1315px;font-family:Gabriola, Gabriola_MSFontService, sans-serif;stroke-width:2;stroke:#ffffff;stroke-opacity:1;fill:#000000;fill-opacity:1;stroke-miterlimit:4;stroke-dasharray:none;stroke-linejoin:round;stroke-linecap:round"
       id="path830-2" />
  </g>
</svg>
