<svg width="96" height="96" xmlns="http://www.w3.org/2000/svg" xmlns:xlink="http://www.w3.org/1999/xlink" overflow="hidden"><defs><clipPath id="clip0"><rect x="592" y="312" width="96" height="96"/></clipPath></defs><g clip-path="url(#clip0)" transform="translate(-592 -312)"><path d="M676 338.802 675.118 338.382 644.812 323.95 605.149 332.604 604 332.854 604 380.442 632.145 395.597 633.007 396.062 634.145 395.787 676 385.684 676 338.802ZM644.569 326.05 671.929 339.078C671.943 339.085 671.942 339.094 671.927 339.097L645.69 344.978 645.69 344.185 643.69 344.185 643.69 345.426 633.29 347.757 607.878 334.073C607.865 334.066 607.866 334.058 607.88 334.055ZM606 379.248 606 335.351C606 335.345 606.005 335.341 606.01 335.341 606.012 335.341 606.013 335.341 606.015 335.342L632.145 349.412 632.145 393.309C632.145 393.314 632.14 393.319 632.135 393.319 632.133 393.319 632.131 393.318 632.13 393.318ZM674 384.11 634.145 393.73 634.145 374.51 636.473 374.002 636.047 372.048 634.145 372.463 634.145 349.615 643.69 347.475 643.69 348.185 645.69 348.185 645.69 347.027 674 340.682Z"/><path d="M643.69 358.185 645.69 358.185 645.69 362.185 643.69 362.185Z"/><path d="M643.69 337.185 645.69 337.185 645.69 341.185 643.69 341.185Z"/><path d="M643.69 351.185 645.69 351.185 645.69 355.185 643.69 355.185Z"/><path d="M643.69 330.185 645.69 330.185 645.69 334.185 643.69 334.185Z"/><path d="M643.69 365.185 645.69 365.185 645.69 369.185 643.69 369.185Z"/><path d="M645.527 372.662 646.352 370.839 649.996 372.488 649.172 374.31Z"/><path d="M664.66 381.317 665.484 379.494 669.129 381.143 668.305 382.966Z"/><path d="M611.621 377.377 615.529 376.525 615.955 378.479 612.047 379.331Z"/><path d="M638.977 371.408 642.886 370.556 643.312 372.511 639.403 373.362Z"/><path d="M658.282 378.431 659.107 376.609 662.751 378.258 661.927 380.08Z"/><path d="M651.905 375.547 652.729 373.725 656.373 375.373 655.549 377.195Z"/><path d="M618.46 375.885 622.368 375.033 622.794 376.987 618.886 377.839Z"/><path d="M625.299 374.393 629.207 373.541 629.633 375.495 625.725 376.347Z"/></g></svg>