<?xml version="1.0" encoding="UTF-8" standalone="no"?>
<!-- Created with Inkscape (http://www.inkscape.org/) -->

<svg
   width="375"
   height="667"
   viewBox="0 0 375 667"
   version="1.1"
   id="svg844"
   inkscape:version="1.1 (c68e22c387, 2021-05-23)"
   sodipodi:docname="splash.svg"
   inkscape:export-filename="D:\.Project\season-studio-site-dev\pwa-main\.html\assets\splash.png"
   inkscape:export-xdpi="96"
   inkscape:export-ydpi="96"
   xmlns:inkscape="http://www.inkscape.org/namespaces/inkscape"
   xmlns:sodipodi="http://sodipodi.sourceforge.net/DTD/sodipodi-0.dtd"
   xmlns:xlink="http://www.w3.org/1999/xlink"
   xmlns="http://www.w3.org/2000/svg"
   xmlns:svg="http://www.w3.org/2000/svg">
  <sodipodi:namedview
     id="namedview846"
     pagecolor="#ffffff"
     bordercolor="#666666"
     borderopacity="1.0"
     inkscape:pageshadow="2"
     inkscape:pageopacity="0.0"
     inkscape:pagecheckerboard="0"
     inkscape:document-units="px"
     showgrid="false"
     units="px"
     inkscape:zoom="0.71446409"
     inkscape:cx="396.80091"
     inkscape:cy="296.02607"
     inkscape:window-width="1920"
     inkscape:window-height="991"
     inkscape:window-x="-9"
     inkscape:window-y="-9"
     inkscape:window-maximized="1"
     inkscape:current-layer="layer1" />
  <defs
     id="defs841">
    <rect
       x="46.188466"
       y="365.30878"
       width="288.328"
       height="72.781825"
       id="rect3220" />
    <linearGradient
       inkscape:collect="always"
       id="linearGradient937">
      <stop
         style="stop-color:#443030;stop-opacity:1;"
         offset="0"
         id="stop933" />
      <stop
         style="stop-color:#574946;stop-opacity:1;"
         offset="1"
         id="stop935" />
    </linearGradient>
    <linearGradient
       inkscape:collect="always"
       xlink:href="#linearGradient937"
       id="linearGradient939"
       x1="0"
       y1="0"
       x2="0"
       y2="667"
       gradientUnits="userSpaceOnUse" />
  </defs>
  <g
     inkscape:label="图层 1"
     inkscape:groupmode="layer"
     id="layer1">
    <rect
       style="fill:url(#linearGradient939);fill-opacity:1;stroke:none;stroke-width:1;stroke-linecap:round"
       id="rect931"
       width="375"
       height="667"
       x="0"
       y="0" />
    <path
       style="fill:#ffcc00;fill-opacity:1;stroke:none;stroke-width:0.582106px;stroke-linecap:butt;stroke-linejoin:miter;stroke-opacity:1"
       d="M 260.29149,218.13386 H 133.87716 c 0,0 -35.424902,3.10942 -35.424902,36.48379 0,33.37438 35.424902,34.41085 35.424902,34.41085 H 210.481 c 6.60464,0 19.60078,1.45259 14.17859,11.27086 8.84911,-2.05084 20.64588,-17.23057 22.0969,-30.29011 -6.10429,-4.24953 -16.01125,-5.02688 -24.6173,-5.02688 h -81.05697 c 0,0 -7.4052,-0.2073 -7.4052,-8.29177 0,-8.08448 7.4052,-8.49907 7.4052,-8.49907 h 100.16573 c 1.55673,-7.18238 9.63692,-25.2899 19.04354,-30.05767 z"
       id="path891"
       sodipodi:nodetypes="ccscsccscsccc"
       inkscape:label="part-s-top" />
    <path
       style="fill:#86c335;fill-opacity:1;stroke:none;stroke-width:0.582106px;stroke-linecap:butt;stroke-linejoin:miter;stroke-opacity:1"
       d="m 80.248238,335.66971 134.963282,0.37971 c 0,0 33.65512,3.32876 49.24925,-33.42005 8.12658,-19.15094 10.37964,-37.95955 19.81291,-48.07798 5.61939,-6.02753 21.51117,-4.98369 21.51117,-4.98369 0,0 0.28304,-19.05529 13.86904,-30.78162 h -25.19071 c -29.66844,4.7046 -35.15227,30.7511 -43.48804,55.84868 -3.76156,11.49023 -13.96941,32.09824 -36.04666,32.09882 l -113.14315,0.003 c 0,0 -0.88963,21.42974 -21.537082,28.93307 z"
       id="path23141"
       sodipodi:nodetypes="ccssccccsccc"
       inkscape:label="long-s" />
    <text
       xml:space="preserve"
       id="text3218"
       style="font-style:normal;font-weight:normal;font-size:40px;line-height:1.25;font-family:sans-serif;white-space:pre;shape-inside:url(#rect3220);fill:#000000;fill-opacity:1;stroke:none"
       transform="translate(9.197204,-15.396155)"><tspan
         x="46.1875"
         y="401.80181"
         id="tspan849"><tspan
           style="font-weight:bold;font-family:Arial;-inkscape-font-specification:'Arial Bold';fill:#ffffff"
           id="tspan847">Season Studio</tspan></tspan></text>
  </g>
</svg>
